<svg width="1920" height="395" viewBox="0 0 1920 395" fill="none" xmlns="http://www.w3.org/2000/svg">
<rect width="1920" height="364" fill="#577C6A" fill-opacity="0.1"/>
<path d="M0 386.515V364H1920V386.515C1889.72 376.008 1805.96 369.003 1757.01 385.014C1708.07 401.025 1641.46 386.515 1631.37 383.013C1621.28 379.51 1566.28 368.503 1513.29 386.515C1460.31 404.527 1421.96 383.513 1362.92 374.007C1315.69 366.402 1282.35 375.174 1271.59 380.511C1253.42 389.184 1207.1 403.026 1167.14 389.017C1117.18 371.505 1069.25 378.009 1032.91 385.014C996.583 392.019 943.601 396.522 913.325 382.513C883.049 368.503 818.46 368.503 785.156 384.014C751.853 399.524 672.126 387.516 658.502 382.513C644.878 377.509 595.932 372.005 558.591 381.011C521.251 390.018 466.25 387.516 432.946 377.509C399.643 367.502 350.696 375.508 342.118 375.508C335.256 375.508 295.863 382.179 277.025 385.515C247.254 391.519 187.206 378.51 133.719 372.005C90.9288 366.802 26.7438 379.51 0 386.515Z" fill="#577C6A" fill-opacity="0.1"/>
</svg>
