<svg width="1920" height="31" viewBox="0 0 1920 31" fill="none" xmlns="http://www.w3.org/2000/svg">
<path d="M0 8.48479V31H1920V8.48479C1889.72 18.9919 1805.96 25.9966 1757.01 9.98581C1708.07 -6.02501 1641.46 8.48479 1631.37 11.9872C1621.28 15.4895 1566.28 26.497 1513.29 8.48479C1460.31 -9.52737 1421.96 11.4868 1362.92 20.9932C1315.69 28.5984 1282.35 19.8258 1271.59 14.4888C1253.42 5.81633 1207.1 -8.02636 1167.14 5.9831C1117.18 23.4949 1069.25 16.9905 1032.91 9.98581C996.583 2.98108 943.601 -1.52197 913.325 12.4875C883.049 26.497 818.46 26.497 785.156 10.9865C751.853 -4.52399 672.126 7.48412 658.502 12.4875C644.878 17.4909 595.932 22.9946 558.591 13.9885C521.251 4.98243 466.25 7.48412 432.946 17.4909C399.643 27.4976 350.696 19.4922 342.118 19.4922C335.256 19.4922 295.863 12.8211 277.025 9.48547C247.254 3.48141 187.206 16.4902 133.719 22.9946C90.9288 28.1981 26.7438 15.4895 0 8.48479Z" fill="#577C6A" fill-opacity="0.1"/>
</svg>
